<svg width="170" height="181" viewBox="0 0 170 181" fill="none" xmlns="http://www.w3.org/2000/svg">
<path d="M104.623 168.911C104.623 171.356 94.1714 173.338 81.2785 173.338C68.3856 173.338 57.9338 171.356 57.9338 168.911C57.9338 166.466 68.3856 164.483 81.2785 164.483C94.1714 164.483 104.623 166.466 104.623 168.911Z" fill="url(#paint0_linear)"/>
<path d="M88.5168 109.31C89.5584 109.479 90.2657 110.46 90.0968 111.501C90.0874 111.553 90.078 111.605 90.0659 111.656L83.6734 139.58C83.0779 142.689 85.1143 145.692 88.222 146.289C91.3298 146.886 94.3343 144.848 94.9309 141.74C94.9569 141.608 94.9777 141.474 94.9931 141.34L112.595 59.4244C113.751 52.1096 108.76 45.2443 101.445 44.0881C94.13 42.9319 87.2649 47.9235 86.1085 55.2384L68.5671 137.204C66.7837 148.676 74.6367 159.42 86.1085 161.204C97.5803 162.987 108.324 155.134 110.108 143.662L124.43 82.3177C124.656 81.3428 125.596 80.7082 126.584 80.8618L130.348 81.447C131.39 81.6104 132.104 82.5867 131.94 83.629C131.934 83.6718 131.926 83.7127 131.917 83.7551L117.648 144.848C114.944 160.442 100.112 170.893 84.5177 168.19C69.3055 165.553 58.9172 151.34 61.0229 136.045L78.6096 54.1407C80.393 42.669 91.1372 34.816 102.609 36.5993C114.081 38.3828 121.934 49.1269 120.15 60.5988L102.609 142.565C101.474 149.864 94.6386 154.86 87.3395 153.726C80.0405 152.591 75.0443 145.755 76.1789 138.456L82.5985 110.181C82.8253 109.206 83.7648 108.571 84.7525 108.725L88.5168 109.31Z" fill="#27AE60"/>
<path d="M127.163 75.9348C127.163 83.4927 121.036 89.6196 113.478 89.6196C105.92 89.6196 99.7932 83.4927 99.7932 75.9348C99.7932 68.3769 105.92 62.25 113.478 62.25C121.036 62.25 127.163 68.3769 127.163 75.9348Z" fill="white"/>
<path fill-rule="evenodd" clip-rule="evenodd" d="M113.478 86.5094C119.318 86.5094 124.053 81.775 124.053 75.9348C124.053 70.0946 119.318 65.3602 113.478 65.3602C107.638 65.3602 102.903 70.0946 102.903 75.9348C102.903 81.775 107.638 86.5094 113.478 86.5094ZM113.478 89.6196C121.036 89.6196 127.163 83.4927 127.163 75.9348C127.163 68.3769 121.036 62.25 113.478 62.25C105.92 62.25 99.7932 68.3769 99.7932 75.9348C99.7932 83.4927 105.92 89.6196 113.478 89.6196Z" fill="black"/>
<path d="M90.9384 75.1291C90.9384 82.687 84.8115 88.8139 77.2536 88.8139C69.6957 88.8139 63.5688 82.687 63.5688 75.1291C63.5688 67.5712 69.6957 61.4443 77.2536 61.4443C84.8115 61.4443 90.9384 67.5712 90.9384 75.1291Z" fill="white"/>
<path fill-rule="evenodd" clip-rule="evenodd" d="M77.2536 85.7037C83.0938 85.7037 87.8282 80.9693 87.8282 75.1291C87.8282 69.2889 83.0938 64.5545 77.2536 64.5545C71.4134 64.5545 66.679 69.2889 66.679 75.1291C66.679 80.9693 71.4134 85.7037 77.2536 85.7037ZM77.2536 88.8139C84.8115 88.8139 90.9384 82.687 90.9384 75.1291C90.9384 67.5712 84.8115 61.4443 77.2536 61.4443C69.6957 61.4443 63.5688 67.5712 63.5688 75.1291C63.5688 82.687 69.6957 88.8139 77.2536 88.8139Z" fill="black"/>
<path fill-rule="evenodd" clip-rule="evenodd" d="M70.0577 53.1318C65.6525 54.363 62.1474 57.0081 60.3071 59.03L57.9338 56.9937C60.1053 54.6081 64.1064 51.5953 69.1816 50.1769C74.3216 48.7403 80.5351 48.9539 86.9134 53.0384L85.1696 55.6053C79.6393 52.0639 74.3982 51.9188 70.0577 53.1318Z" fill="black"/>
<path fill-rule="evenodd" clip-rule="evenodd" d="M99.2443 108.727C106.508 106.636 112.277 102.155 115.327 98.7032L117.665 100.77C114.289 104.591 108.032 109.445 100.108 111.726C92.1196 114.026 82.4651 113.695 72.5082 107.128L74.2264 104.523C83.3477 110.539 92.0441 110.8 99.2443 108.727Z" fill="black"/>
<path fill-rule="evenodd" clip-rule="evenodd" d="M110.775 47.8096C106.493 49.1433 103.085 52.0089 101.296 54.1992L98.9883 51.9933C101.099 49.4089 104.989 46.145 109.924 44.6083C114.921 43.0521 120.962 43.2835 127.163 47.7084L125.467 50.4892C120.091 46.6526 114.995 46.4954 110.775 47.8096Z" fill="black"/>
<path d="M80.4737 75.1294C80.4737 77.3523 78.6717 79.1544 76.4488 79.1544C74.2259 79.1544 72.4238 77.3523 72.4238 75.1294C72.4238 72.9065 74.2259 71.1045 76.4488 71.1045C78.6717 71.1045 80.4737 72.9065 80.4737 75.1294Z" fill="black"/>
<path d="M116.698 75.1294C116.698 77.3523 114.896 79.1544 112.673 79.1544C110.45 79.1544 108.648 77.3523 108.648 75.1294C108.648 72.9065 110.45 71.1045 112.673 71.1045C114.896 71.1045 116.698 72.9065 116.698 75.1294Z" fill="black"/>
<path fill-rule="evenodd" clip-rule="evenodd" d="M110.207 18.7723L88.4661 29.5955L82.7406 15.328L89.6841 12.5416L92.39 19.2845L106.872 12.0746L110.207 18.7723Z" stroke="black" stroke-width="2"/>
<path fill-rule="evenodd" clip-rule="evenodd" d="M58.1507 34.0588L45.301 51.4929L34.9526 42.4998L38.5295 39.2968L44.3368 43.9469L54.6129 30.8999L58.1507 34.0588Z" stroke="black" stroke-width="2"/>
<path fill-rule="evenodd" clip-rule="evenodd" d="M160.448 52.6939L141.415 63.0286L135.86 50.4943L140.458 49.1116L143.744 55.7864L158.585 48.3323L160.448 52.6939Z" stroke="#C8C8C8" stroke-width="2"/>
<path fill-rule="evenodd" clip-rule="evenodd" d="M51.4273 60.7231L52.3257 76.3283L42.4334 76.1029L42.9437 72.6754L48.3123 72.5816L48.0065 60.5992L51.4273 60.7231Z" stroke="#C8C8C8" stroke-width="2"/>
<defs>
<linearGradient id="paint0_linear" x1="108.375" y1="135.589" x2="68.441" y2="172.139" gradientUnits="userSpaceOnUse">
<stop stop-color="#C4C4C4"/>
<stop offset="1" stop-color="#C4C4C4" stop-opacity="0"/>
</linearGradient>
</defs>
</svg>
