<svg width="170" height="170" viewBox="0 0 170 170" fill="none" xmlns="http://www.w3.org/2000/svg">
<path d="M88.6231 156.911C88.6231 159.356 78.1714 161.338 65.2785 161.338C52.3856 161.338 41.9338 159.356 41.9338 156.911C41.9338 154.466 52.3856 152.483 65.2785 152.483C78.1714 152.483 88.6231 154.466 88.6231 156.911Z" fill="url(#paint0_linear)"/>
<path d="M72.5168 97.3099C73.5584 97.4786 74.2657 98.4595 74.0968 99.5009C74.0874 99.5527 74.078 99.6045 74.0659 99.6561L67.6734 127.58C67.0779 130.689 69.1143 133.692 72.222 134.289C75.3298 134.886 78.3343 132.848 78.9309 129.74C78.9569 129.608 78.9777 129.474 78.9931 129.34L96.5951 47.4244C97.7513 40.1096 92.7596 33.2443 85.4448 32.0881C78.13 30.9319 71.2649 35.9235 70.1085 43.2384L52.5671 125.204C50.7837 136.676 58.6367 147.42 70.1085 149.204C81.5803 150.987 92.3244 143.134 94.108 131.662L108.43 70.3177C108.656 69.3428 109.596 68.7082 110.584 68.8618L114.348 69.447C115.39 69.6104 116.104 70.5867 115.94 71.629C115.934 71.6718 115.926 71.7127 115.917 71.7551L101.648 132.848C98.9442 148.442 84.1118 158.893 68.5177 156.19C53.3055 153.553 42.9172 139.34 45.0229 124.045L62.6096 42.1407C64.393 30.669 75.1372 22.816 86.6091 24.5993C98.0808 26.3828 105.934 37.1269 104.15 48.5988L86.6092 130.565C85.4745 137.864 78.6386 142.86 71.3395 141.726C64.0405 140.591 59.0443 133.755 60.1789 126.456L66.5985 98.1806C66.8253 97.2057 67.7648 96.5711 68.7525 96.7247L72.5168 97.3099Z" fill="#EB5757"/>
<path d="M111.163 63.9348C111.163 71.4927 105.036 77.6196 97.478 77.6196C89.9201 77.6196 83.7932 71.4927 83.7932 63.9348C83.7932 56.3769 89.9201 50.25 97.478 50.25C105.036 50.25 111.163 56.3769 111.163 63.9348Z" fill="white"/>
<path fill-rule="evenodd" clip-rule="evenodd" d="M97.478 74.5094C103.318 74.5094 108.053 69.775 108.053 63.9348C108.053 58.0946 103.318 53.3602 97.478 53.3602C91.6378 53.3602 86.9034 58.0946 86.9034 63.9348C86.9034 69.775 91.6378 74.5094 97.478 74.5094ZM97.478 77.6196C105.036 77.6196 111.163 71.4927 111.163 63.9348C111.163 56.3769 105.036 50.25 97.478 50.25C89.9201 50.25 83.7932 56.3769 83.7932 63.9348C83.7932 71.4927 89.9201 77.6196 97.478 77.6196Z" fill="black"/>
<path d="M74.9384 63.1291C74.9384 70.687 68.8115 76.8139 61.2536 76.8139C53.6957 76.8139 47.5688 70.687 47.5688 63.1291C47.5688 55.5712 53.6957 49.4443 61.2536 49.4443C68.8115 49.4443 74.9384 55.5712 74.9384 63.1291Z" fill="white"/>
<path fill-rule="evenodd" clip-rule="evenodd" d="M61.2536 73.7037C67.0938 73.7037 71.8282 68.9693 71.8282 63.1291C71.8282 57.2889 67.0938 52.5545 61.2536 52.5545C55.4134 52.5545 50.679 57.2889 50.679 63.1291C50.679 68.9693 55.4134 73.7037 61.2536 73.7037ZM61.2536 76.8139C68.8115 76.8139 74.9384 70.687 74.9384 63.1291C74.9384 55.5712 68.8115 49.4443 61.2536 49.4443C53.6957 49.4443 47.5688 55.5712 47.5688 63.1291C47.5688 70.687 53.6957 76.8139 61.2536 76.8139Z" fill="black"/>
<path fill-rule="evenodd" clip-rule="evenodd" d="M54.0577 41.1318C49.6525 42.363 46.1474 45.0081 44.3071 47.03L41.9338 44.9937C44.1053 42.6081 48.1064 39.5953 53.1816 38.1769C58.3216 36.7403 64.5351 36.9539 70.9134 41.0384L69.1696 43.6053C63.6393 40.0639 58.3982 39.9188 54.0577 41.1318Z" fill="black"/>
<path fill-rule="evenodd" clip-rule="evenodd" d="M74.9293 90.9952C67.6653 93.0862 61.897 97.5677 58.8466 101.019L56.5083 98.953C59.8849 95.1321 66.142 90.2774 74.0661 87.9964C82.054 85.6969 91.7085 86.0277 101.665 92.595L99.9472 95.1999C90.8259 89.1837 82.1295 88.9225 74.9293 90.9952Z" fill="black"/>
<path fill-rule="evenodd" clip-rule="evenodd" d="M94.7754 35.8096C90.4925 37.1433 87.0848 40.0089 85.2956 42.1992L82.9883 39.9933C85.0994 37.4089 88.9894 34.145 93.9236 32.6083C98.9208 31.0521 104.962 31.2835 111.163 35.7084L109.467 38.4892C104.091 34.6526 98.9953 34.4954 94.7754 35.8096Z" fill="black"/>
<path d="M64.4737 63.1294C64.4737 65.3523 62.6717 67.1544 60.4488 67.1544C58.2259 67.1544 56.4238 65.3523 56.4238 63.1294C56.4238 60.9065 58.2259 59.1045 60.4488 59.1045C62.6717 59.1045 64.4737 60.9065 64.4737 63.1294Z" fill="black"/>
<path d="M100.698 63.1294C100.698 65.3523 98.896 67.1544 96.6731 67.1544C94.4502 67.1544 92.6482 65.3523 92.6482 63.1294C92.6482 60.9065 94.4502 59.1045 96.6731 59.1045C98.896 59.1045 100.698 60.9065 100.698 63.1294Z" fill="black"/>
<path fill-rule="evenodd" clip-rule="evenodd" d="M128.016 54.0417L124.614 49.3486L125.284 48.5986C125.966 47.8355 126.811 47.1817 127.797 46.6267C128.765 46.0606 129.764 45.6311 130.792 45.3451C132.038 44.9983 133.2 44.851 134.241 44.9773C135.216 45.0887 136.105 45.3542 136.862 45.8219C137.568 46.2589 138.15 46.818 138.578 47.5045C138.97 48.1002 139.265 48.7201 139.444 49.3637C139.62 49.9946 139.688 50.6314 139.635 51.2667C139.599 51.815 139.499 52.35 139.336 52.8694C139.178 53.3698 138.974 53.8571 138.724 54.3311C138.502 54.7507 138.284 55.1506 138.07 55.5308C137.922 55.7925 137.769 56.0761 137.611 56.3819L137.601 56.4024L137.589 56.4225C137.456 56.6582 137.34 56.9044 137.241 57.1618C137.167 57.3949 137.114 57.637 137.084 57.8894L137.082 57.9029L137.08 57.9164C137.058 58.0744 137.068 58.2158 137.106 58.3519L137.197 58.6766C137.224 58.774 137.246 58.8297 137.258 58.8547L137.881 60.19L137.373 60.3314C138.31 60.8143 138.899 61.6509 139.183 62.6716C139.484 63.7527 139.385 64.8337 138.739 65.7684C138.193 66.5781 137.432 67.1365 136.491 67.3983C135.549 67.6607 134.604 67.5755 133.709 67.1756L133.699 67.1712L133.689 67.1666C132.669 66.69 132.043 65.8116 131.745 64.7414C131.463 63.7274 131.522 62.7086 132.062 61.8092L131.904 61.8533L131.441 60.9404C131.33 60.7209 131.23 60.4854 131.138 60.2371L131.12 60.1884L130.94 59.5431C130.773 58.9425 130.687 58.347 130.708 57.7653C130.721 57.2315 130.789 56.7144 130.918 56.2181L130.92 56.2087L130.923 56.1993C131.059 55.7071 131.236 55.2342 131.455 54.7819C131.652 54.3766 131.86 53.9782 132.082 53.5866C132.365 53.0848 132.614 52.6053 132.831 52.1478C132.939 51.8989 132.951 51.6827 132.886 51.4511C132.867 51.3837 132.845 51.3347 132.713 51.2695L132.698 51.2621L132.683 51.2542C132.661 51.2423 132.492 51.1656 132.011 51.2993C131.463 51.452 130.979 51.6604 130.552 51.9194C130.11 52.1881 129.608 52.5721 129.048 53.0889L128.016 54.0417ZM133.966 52.6665C133.734 53.1587 133.468 53.67 133.168 54.2003C132.96 54.5692 132.763 54.9447 132.578 55.3266C132.393 55.7085 132.242 56.11 132.126 56.531C132.023 56.9289 131.966 57.3529 131.955 57.8029C131.94 58.2349 132.002 58.7034 132.143 59.2085L132.308 59.8038C132.386 60.0152 132.469 60.2061 132.555 60.3764L136.127 59.3825C136.078 59.2793 136.034 59.1556 135.994 59.0112L135.904 58.6866C135.871 58.5707 135.849 58.4535 135.835 58.3352C135.813 58.1404 135.816 57.9424 135.845 57.741C135.886 57.3992 135.959 57.0679 136.064 56.7471C136.187 56.4214 136.333 56.1086 136.502 55.8088C136.666 55.491 136.827 55.1938 136.983 54.9171C137.191 54.5482 137.403 54.1587 137.62 53.7487C137.836 53.3387 138.011 52.9207 138.145 52.4946C138.279 52.0686 138.361 51.6281 138.39 51.1731C138.432 50.695 138.382 50.2034 138.242 49.6983C138.101 49.1933 137.863 48.6862 137.527 48.1773C137.209 47.6633 136.768 47.232 136.205 46.8835C135.641 46.535 134.938 46.3128 134.095 46.217C133.27 46.1161 132.281 46.2264 131.126 46.5476C130.206 46.8036 129.304 47.1909 128.418 47.7095C127.527 48.21 126.793 48.7837 126.215 49.4304L128.202 52.1716C128.531 51.8676 128.85 51.5985 129.158 51.3642C129.414 51.1695 129.663 50.9989 129.905 50.8523C130.437 50.5294 131.027 50.2775 131.677 50.0968C132.326 49.9161 132.856 49.9339 133.266 50.1502C133.694 50.3615 133.968 50.6835 134.089 51.1165C134.234 51.6396 134.193 52.1562 133.966 52.6665ZM136.684 61.3847C136.058 61.0924 135.421 61.0366 134.771 61.2173C134.122 61.398 133.596 61.7776 133.193 62.3561C132.809 62.9295 132.727 63.6131 132.948 64.4068C133.169 65.2004 133.592 65.7435 134.217 66.0358C134.861 66.3232 135.507 66.3765 136.157 66.1958C136.806 66.015 137.323 65.638 137.708 65.0645C138.11 64.486 138.201 63.7999 137.98 63.0063C137.76 62.2126 137.327 61.6721 136.684 61.3847Z" fill="black"/>
<path fill-rule="evenodd" clip-rule="evenodd" d="M31.9923 13.6423L28.59 8.9492L29.2603 8.19918C29.9423 7.4361 30.7874 6.78232 31.773 6.22732C32.7417 5.66117 33.7403 5.23166 34.768 4.94567C36.0142 4.59889 37.1762 4.45158 38.2177 4.57791C39.1921 4.68924 40.0816 4.95475 40.8378 5.42252C41.5442 5.85945 42.1265 6.41859 42.5548 7.10511C42.9461 7.70077 43.2415 8.32071 43.4206 8.96427C43.5962 9.59514 43.6645 10.2319 43.6109 10.8673C43.575 11.4155 43.4758 11.9506 43.3123 12.47C43.1548 12.9704 42.9501 13.4577 42.7001 13.9317C42.4788 14.3512 42.2608 14.7512 42.0461 15.1314C41.8984 15.3931 41.7455 15.6767 41.5875 15.9825L41.5768 16.003L41.5655 16.0231C41.4324 16.2588 41.3165 16.505 41.2178 16.7623C41.1432 16.9955 41.0906 17.2376 41.0603 17.49L41.0587 17.5035L41.0568 17.517C41.0344 17.675 41.0447 17.8163 41.0826 17.9525L41.1729 18.2772C41.2 18.3746 41.2224 18.4303 41.234 18.4553L41.8571 19.7906L41.349 19.932C42.2861 20.4149 42.8752 21.2515 43.1593 22.2722C43.4601 23.3533 43.3613 24.4342 42.7149 25.369C42.1692 26.1787 41.4084 26.7371 40.4678 26.9989C39.525 27.2613 38.5806 27.1761 37.6848 26.7762L37.675 26.7718L37.6652 26.7672C36.6453 26.2906 36.0194 25.4122 35.7216 24.342C35.4394 23.328 35.4984 22.3092 36.0388 21.4097L35.8801 21.4539L35.4178 20.541C35.3066 20.3215 35.2059 20.086 35.1139 19.8377L35.0959 19.789L34.9163 19.1437C34.7492 18.5431 34.6638 17.9476 34.6841 17.3659C34.6975 16.832 34.7657 16.315 34.8942 15.8187L34.8966 15.8093L34.8992 15.7999C35.0349 15.3077 35.2121 14.8348 35.4314 14.3825C35.628 13.9772 35.8368 13.5788 36.0579 13.1872C36.3412 12.6854 36.5905 12.2059 36.8069 11.7484C36.9154 11.4995 36.9268 11.2833 36.8624 11.0517C36.8436 10.9843 36.8217 10.9353 36.6897 10.8701L36.6746 10.8627L36.6597 10.8548C36.6371 10.8429 36.4683 10.7662 35.9877 10.8999C35.4393 11.0525 34.9553 11.2609 34.5287 11.5199C34.086 11.7886 33.5848 12.1727 33.0248 12.6895L31.9923 13.6423ZM37.9424 12.2671C37.7101 12.7593 37.4442 13.2706 37.1448 13.8009C36.9365 14.1698 36.7398 14.5452 36.5545 14.9272C36.3693 15.3091 36.2186 15.7106 36.1026 16.1316C35.9995 16.5295 35.9426 16.9535 35.9318 17.4035C35.916 17.8355 35.9783 18.304 36.1189 18.8091L36.2845 19.4043C36.3628 19.6158 36.4451 19.8067 36.5313 19.977L40.1029 18.9831C40.0547 18.8799 40.0106 18.7561 39.9704 18.6118L39.88 18.2871C39.8478 18.1712 39.8249 18.0541 39.8114 17.9358C39.7892 17.741 39.7924 17.5429 39.821 17.3416C39.8619 16.9998 39.9349 16.6685 40.04 16.3477C40.1631 16.0219 40.3093 15.7092 40.4785 15.4094C40.6428 15.0916 40.803 14.7944 40.9592 14.5177C41.1675 14.1488 41.3798 13.7593 41.5961 13.3493C41.8124 12.9393 41.9876 12.5212 42.1217 12.0952C42.2558 11.6692 42.3372 11.2287 42.3661 10.7737C42.408 10.2956 42.3586 9.80399 42.2181 9.29892C42.0775 8.79386 41.8392 8.28683 41.5032 7.77785C41.1853 7.26385 40.7446 6.83259 40.1812 6.48407C39.6178 6.13556 38.9146 5.91339 38.0716 5.81757C37.2467 5.71673 36.2571 5.82695 35.1026 6.14821C34.1827 6.40421 33.2799 6.7915 32.3941 7.31008C31.5034 7.81062 30.769 8.38425 30.191 9.03097L32.1782 11.7722C32.5076 11.4682 32.8264 11.1991 33.1346 10.9648C33.3907 10.7701 33.6395 10.5995 33.8809 10.4529C34.413 10.1299 35.0037 9.87811 35.653 9.6974C36.3024 9.51669 36.8321 9.53448 37.2421 9.75077C37.6702 9.96204 37.9445 10.2841 38.0649 10.717C38.2105 11.2402 38.1696 11.7568 37.9424 12.2671ZM40.6601 20.9853C40.0345 20.693 39.3971 20.6371 38.7477 20.8178C38.0983 20.9986 37.5723 21.3782 37.1697 21.9566C36.7851 22.5301 36.7032 23.2137 36.9241 24.0073C37.145 24.801 37.5682 25.344 38.1937 25.6364C38.8373 25.9237 39.4838 25.9771 40.1331 25.7963C40.7825 25.6156 41.2995 25.2385 41.6841 24.6651C42.0867 24.0866 42.1776 23.4005 41.9567 22.6068C41.7359 21.8132 41.3036 21.2727 40.6601 20.9853Z" fill="black"/>
<path fill-rule="evenodd" clip-rule="evenodd" d="M114.976 16.0721L114.899 11.5552L115.878 11.3247C116.555 11.1653 117.271 11.1324 118.013 11.2045C118.745 11.2645 119.446 11.4092 120.112 11.6438C120.905 11.9234 121.611 12.2885 122.159 12.779C122.653 13.2165 123.061 13.7229 123.313 14.3096L122.167 14.8033C122.004 14.4246 121.724 14.0606 121.329 13.7112C120.944 13.3656 120.4 13.0689 119.697 12.8211C119.136 12.6236 118.538 12.4992 117.901 12.4478C117.269 12.3854 116.69 12.416 116.164 12.5397L116.2 14.6461C116.667 14.5827 117.083 14.5592 117.447 14.5755C117.478 14.5769 117.509 14.5786 117.539 14.5805C117.925 14.6055 118.316 14.6878 118.712 14.8272C119.107 14.9666 119.371 15.1645 119.503 15.421C119.646 15.6814 119.671 15.9434 119.578 16.2071C119.466 16.5258 119.261 16.7747 118.963 16.9538C118.669 17.122 118.351 17.2879 118.009 17.4515C117.772 17.5654 117.537 17.6866 117.307 17.8153C117.076 17.9441 116.856 18.0951 116.647 18.2683C116.452 18.4345 116.272 18.6304 116.106 18.856C115.944 19.0706 115.809 19.3318 115.7 19.6394L115.573 20.002C115.549 20.0928 115.529 20.1795 115.514 20.2622C115.506 20.3031 115.5 20.3431 115.494 20.3821L117.67 21.1488C117.678 21.1002 117.691 21.0473 117.709 20.99C117.717 20.9649 117.725 20.939 117.735 20.9122L117.804 20.7144C117.829 20.6438 117.859 20.576 117.895 20.5108C117.953 20.4036 118.025 20.3037 118.111 20.2112C118.254 20.0515 118.41 19.9086 118.578 19.7825C118.756 19.6603 118.943 19.553 119.136 19.4605C119.333 19.357 119.52 19.2625 119.699 19.1772C119.937 19.0633 120.184 18.9404 120.44 18.8085C120.697 18.6765 120.935 18.5258 121.155 18.3564C121.376 18.187 121.574 17.9914 121.751 17.7697C121.943 17.5408 122.093 17.2726 122.202 16.9649C122.31 16.6572 122.369 16.3137 122.379 15.9344C122.401 15.5589 122.33 15.1819 122.167 14.8033L123.313 14.3096C123.543 14.8427 123.656 15.4055 123.627 15.9854C123.612 16.4679 123.535 16.9367 123.379 17.3798C123.227 17.8107 123.009 18.2088 122.718 18.5596C122.482 18.8538 122.214 19.1167 121.916 19.3459C121.634 19.5628 121.332 19.7534 121.011 19.9184C120.745 20.0553 120.487 20.1835 120.238 20.303C120.075 20.3809 119.901 20.4684 119.716 20.5656L119.696 20.5763L119.675 20.5863C119.548 20.6469 119.425 20.717 119.306 20.797C119.213 20.8689 119.125 20.9505 119.042 21.0431L119.033 21.0532L119.024 21.0632C118.999 21.0896 118.989 21.1095 118.982 21.1293L118.912 21.3266C118.905 21.3464 118.901 21.3601 118.899 21.3673C118.899 21.3684 118.899 21.3693 118.898 21.3701L118.66 22.728C118.717 23.1786 118.654 23.6352 118.5 24.0725C118.231 24.8375 117.707 25.4738 116.891 25.7776C116.223 26.0341 115.522 26.0509 114.841 25.811C114.158 25.5704 113.622 25.1159 113.254 24.5031L113.248 24.4938L113.243 24.4845C112.811 23.7353 112.814 22.9165 113.08 22.1623C113.29 21.5683 113.651 21.0449 114.189 20.6966L114.259 20.2061C114.283 20.0339 114.32 19.8601 114.365 19.6863L114.378 19.6361L114.523 19.2245C114.665 18.8233 114.854 18.4449 115.105 18.1103C115.321 17.8173 115.564 17.5516 115.836 17.3194L115.843 17.3131L115.851 17.3069C116.117 17.0865 116.4 16.8921 116.699 16.7253C116.952 16.584 117.209 16.4508 117.47 16.3257C117.722 16.205 117.957 16.0844 118.176 15.9641C117.924 15.8851 117.686 15.8409 117.458 15.8261C117.176 15.8079 116.816 15.8221 116.368 15.8829L114.976 16.0721ZM115.182 21.5954C115.159 21.6029 115.137 21.6108 115.114 21.6191C114.713 21.7744 114.428 22.0938 114.257 22.5772C114.087 23.0607 114.109 23.4885 114.324 23.8606C114.55 24.2366 114.86 24.4943 115.256 24.6337C115.651 24.7732 116.049 24.7652 116.45 24.6099C116.862 24.4585 117.153 24.1411 117.323 23.6576C117.493 23.1742 117.466 22.7444 117.24 22.3684C117.228 22.3479 117.216 22.3278 117.204 22.308C116.991 21.9685 116.698 21.7328 116.325 21.6011C115.951 21.4694 115.57 21.4675 115.182 21.5954Z" fill="#C4C4C4"/>
<path fill-rule="evenodd" clip-rule="evenodd" d="M22.9884 38.7726L21.848 34.4013L22.7451 33.9463C23.3655 33.6317 24.0532 33.4308 24.791 33.3259C25.5163 33.2115 26.2319 33.1867 26.9343 33.2577C27.771 33.3422 28.5436 33.5303 29.1914 33.8778C29.7752 34.1863 30.2903 34.5823 30.6743 35.0929L29.6766 35.8431C29.4289 35.5136 29.0715 35.2258 28.6046 34.9795C28.1493 34.7345 27.5507 34.5745 26.8088 34.4996C26.2177 34.4399 25.6068 34.4602 24.976 34.5604C24.3465 34.649 23.791 34.8154 23.3097 35.0595L23.8415 37.098C24.28 36.9263 24.6784 36.8054 25.0369 36.7352C25.0672 36.7292 25.0972 36.7237 25.1269 36.7185C25.5084 36.6516 25.9078 36.6392 26.325 36.6814C26.7423 36.7235 27.0453 36.8537 27.2341 37.0718C27.4344 37.2911 27.5205 37.5398 27.4924 37.818C27.4585 38.1541 27.3179 38.4444 27.0708 38.6887C26.8248 38.9215 26.555 39.1577 26.2615 39.3974C26.0573 39.5641 25.8583 39.7372 25.6646 39.9167C25.4708 40.0962 25.2927 40.2949 25.1302 40.5126C24.9804 40.72 24.8515 40.9529 24.7435 41.2113C24.6366 41.4581 24.5667 41.7438 24.5339 42.0683L24.4953 42.4508C24.4937 42.5446 24.4951 42.6335 24.4997 42.7175C24.502 42.7591 24.505 42.7994 24.5088 42.8386L26.8039 43.0704C26.8007 43.0212 26.8009 42.9667 26.8045 42.9068C26.806 42.8807 26.8082 42.8535 26.8111 42.8252L26.8322 42.6166C26.8397 42.5421 26.8529 42.469 26.8719 42.3974C26.9031 42.2795 26.9497 42.1654 27.0118 42.0551C27.1129 41.8663 27.2301 41.6907 27.3636 41.5286C27.5087 41.3676 27.6641 41.2194 27.83 41.0839C27.9971 40.9368 28.1572 40.8008 28.3104 40.6757C28.5146 40.509 28.7257 40.3313 28.9438 40.1425C29.1619 39.9538 29.3581 39.7511 29.5322 39.5345C29.7063 39.3179 29.8531 39.081 29.9728 38.8238C30.1052 38.5561 30.1878 38.26 30.2206 37.9354C30.2534 37.6109 30.2299 37.2631 30.1503 36.8921C30.0823 36.5222 29.9244 36.1725 29.6766 35.8431L30.6743 35.0929C31.0231 35.5567 31.2663 36.0769 31.3744 36.6473C31.4742 37.1196 31.5097 37.5934 31.4625 38.0609C31.4166 38.5154 31.2989 38.9537 31.0984 39.3634C30.9383 39.705 30.7405 40.0236 30.5051 40.3165C30.2822 40.5938 30.0334 40.8504 29.7606 41.0864C29.5343 41.2822 29.314 41.4677 29.0998 41.6426C28.96 41.7568 28.8117 41.8827 28.6548 42.0209L28.6374 42.0361L28.6195 42.0507C28.5107 42.1396 28.4078 42.2367 28.3105 42.3426C28.2371 42.4344 28.171 42.5345 28.1124 42.6439L28.106 42.6559L28.0993 42.6678C28.0816 42.6992 28.0762 42.721 28.0741 42.742L28.0531 42.9501C28.051 42.9709 28.0502 42.9852 28.05 42.9927C28.0499 42.9939 28.0499 42.9948 28.0499 42.9956L28.1388 44.3714C28.3008 44.7958 28.3473 45.2544 28.3007 45.7157C28.2192 46.5227 27.8603 47.2646 27.1395 47.7522C26.5508 48.159 25.8729 48.341 25.1548 48.2684C24.4345 48.1957 23.8059 47.8806 23.3038 47.3719L23.2963 47.3642L23.2888 47.3564C22.692 46.7304 22.5026 45.9338 22.5829 45.1382C22.6462 44.5116 22.8736 43.9177 23.3143 43.4524L23.2665 42.9592C23.2497 42.7861 23.2441 42.6086 23.2473 42.429L23.2482 42.3771L23.292 41.9429C23.3348 41.5196 23.4293 41.1073 23.5948 40.7228C23.7357 40.3871 23.909 40.0716 24.1182 39.7818L24.1239 39.7739L24.1298 39.7661C24.3364 39.4892 24.5652 39.2336 24.8163 39.001C25.0291 38.8039 25.2477 38.6137 25.472 38.4306C25.6885 38.2538 25.8885 38.0812 26.0725 37.9127C25.8092 37.8953 25.5668 37.9086 25.3424 37.9479C25.064 37.9968 24.7176 38.0955 24.2967 38.2603L22.9884 38.7726ZM24.4915 44.0914C24.4713 44.104 24.4511 44.117 24.4311 44.1305C24.0784 44.3759 23.8763 44.7536 23.8248 45.2636C23.7733 45.7737 23.8958 46.1841 24.1923 46.4951C24.5003 46.8072 24.863 46.9844 25.2803 47.0265C25.6975 47.0687 26.0825 46.967 26.4352 46.7216C26.7994 46.4774 27.0073 46.1003 27.0588 45.5902C27.1103 45.0802 26.982 44.6692 26.674 44.357C26.6576 44.3399 26.6411 44.3232 26.6244 44.3068C26.338 44.027 25.9976 43.8672 25.6034 43.8274C25.2091 43.7875 24.8384 43.8756 24.4915 44.0914Z" fill="#C4C4C4"/>
<path fill-rule="evenodd" clip-rule="evenodd" d="M152.525 27.8303L152.077 21.2966L153.043 21.0161C154.211 20.6769 155.48 20.549 156.836 20.6116C158.186 20.6518 159.476 20.8504 160.703 21.2129C162.199 21.655 163.461 22.242 164.421 23.0176C165.336 23.7458 166.055 24.5672 166.514 25.4968L165.394 26.0488C165.036 25.3225 164.451 24.6366 163.64 23.9911C162.85 23.3521 161.753 22.8251 160.349 22.4099C159.23 22.0791 158.043 21.8955 156.789 21.859C155.542 21.8005 154.409 21.9191 153.391 22.2148L153.674 26.3432C154.109 26.2612 154.521 26.1983 154.912 26.1544C155.408 26.0987 155.868 26.0737 156.293 26.0794C157.054 26.0894 157.829 26.2112 158.619 26.4447C159.41 26.6782 159.947 27.0398 160.232 27.5297C160.538 28.026 160.614 28.5375 160.458 29.0642C160.27 29.7006 159.893 30.2096 159.327 30.5911C158.767 30.9507 158.16 31.3083 157.506 31.6638C157.052 31.9112 156.604 32.1727 156.165 32.4485C155.725 32.7243 155.309 33.0428 154.916 33.4038C154.551 33.7495 154.218 34.1519 153.915 34.6113C153.619 35.0487 153.38 35.5746 153.198 36.1891L152.984 36.9133C152.928 37.1832 152.89 37.4343 152.869 37.6667L157.214 38.951C157.231 38.8128 157.265 38.656 157.317 38.4804L157.434 38.0854C157.468 37.9706 157.509 37.8591 157.557 37.7507C157.664 37.5067 157.807 37.2789 157.986 37.0672C158.249 36.7395 158.54 36.4435 158.856 36.1792C159.195 35.9213 159.549 35.6919 159.919 35.491C160.295 35.268 160.654 35.0638 160.995 34.8783C161.45 34.6309 161.922 34.3649 162.412 34.0801C162.902 33.7954 163.354 33.4757 163.769 33.1211C164.184 32.7665 164.554 32.3628 164.879 31.9099C165.232 31.4416 165.5 30.9002 165.681 30.2857C165.863 29.6712 165.944 28.9914 165.926 28.2462C165.93 27.5075 165.752 26.775 165.394 26.0488L166.514 25.4968C166.946 26.3738 167.176 27.2898 167.174 28.2333C167.194 29.0812 167.101 29.8871 166.878 30.6395C166.66 31.3792 166.331 32.0539 165.885 32.6493C165.505 33.1774 165.07 33.6519 164.58 34.0701C164.106 34.4753 163.592 34.8382 163.039 35.1593C162.54 35.4494 162.057 35.7214 161.591 35.9749C161.265 36.1522 160.92 36.3487 160.555 36.5647L160.536 36.5765L160.515 36.5876C160.21 36.7534 159.917 36.9424 159.635 37.1552C159.391 37.3614 159.165 37.5925 158.958 37.8501L158.949 37.8607L158.94 37.8711C158.791 38.0488 158.691 38.2358 158.631 38.4392L158.514 38.8342C158.476 38.9631 158.459 39.0507 158.453 39.1032L158.273 40.5657L157.207 40.2507C157.324 40.392 157.433 40.5417 157.536 40.6994C158.255 41.7744 158.354 43.0097 157.984 44.2614C157.614 45.513 156.859 46.4959 155.672 47.0073C154.64 47.4672 153.557 47.5475 152.477 47.2283C151.395 46.9085 150.523 46.2494 149.889 45.3055L149.883 45.2965L149.877 45.2875C149.181 44.2138 149.1 42.985 149.467 41.7442C149.834 40.5033 150.57 39.5159 151.737 38.9928L151.747 38.9884L151.757 38.9841C151.929 38.9105 152.102 38.8469 152.277 38.7934L151.534 38.5737L151.626 37.5546C151.651 37.2672 151.698 36.9685 151.762 36.6602L151.772 36.6093L152.001 35.8353C152.211 35.1258 152.497 34.4799 152.877 33.9179C153.226 33.3888 153.619 32.9134 154.057 32.4979L154.065 32.4912L154.072 32.4846C154.519 32.0736 154.996 31.7086 155.501 31.3913C155.963 31.1017 156.432 30.827 156.91 30.5672C157.535 30.2272 158.112 29.8877 158.639 29.5491C158.966 29.326 159.159 29.0564 159.261 28.7104C159.309 28.5475 159.303 28.4013 159.17 28.1859L159.161 28.1716L159.153 28.157C159.088 28.0458 158.888 27.8256 158.266 27.6417C157.576 27.4379 156.914 27.3359 156.277 27.3275C155.621 27.3188 154.834 27.3947 153.905 27.5698L152.525 27.8303ZM156.494 41.387C156.035 40.6787 155.411 40.2078 154.621 39.9743C153.831 39.7408 153.04 39.7933 152.248 40.1319C151.477 40.477 150.95 41.1323 150.664 42.0979C150.379 43.0636 150.466 43.9005 150.924 44.6088C151.405 45.3236 152.04 45.7978 152.831 46.0313C153.621 46.2648 154.401 46.209 155.171 45.8639C155.963 45.5253 156.502 44.8732 156.787 43.9076C157.072 42.942 156.975 42.1018 156.494 41.387Z" fill="black"/>
<defs>
<linearGradient id="paint0_linear" x1="92.3749" y1="123.589" x2="52.441" y2="160.139" gradientUnits="userSpaceOnUse">
<stop stop-color="#C4C4C4"/>
<stop offset="1" stop-color="#C4C4C4" stop-opacity="0"/>
</linearGradient>
</defs>
</svg>
