<svg width="217" height="229" viewBox="0 0 217 229" fill="none" xmlns="http://www.w3.org/2000/svg">
<path d="M107.608 214.501C107.608 217.539 94.6244 220.001 78.6082 220.001C62.5919 220.001 49.6082 217.539 49.6082 214.501C49.6082 211.463 62.5919 209.001 78.6082 209.001C94.6244 209.001 107.608 211.463 107.608 214.501Z" fill="url(#paint0_linear)"/>
<path d="M87.5998 140.461C88.8937 140.671 89.7724 141.89 89.5627 143.183C89.551 143.248 89.5392 143.312 89.5243 143.376L81.5831 178.065C80.8434 181.927 83.3731 185.658 87.2337 186.399C91.0943 187.14 94.8267 184.609 95.5678 180.748C95.6001 180.584 95.6259 180.418 95.6451 180.251L117.511 78.4909C118.948 69.404 112.747 60.8756 103.66 59.4393C94.5729 58.003 86.0447 64.2038 84.6082 73.2908L62.8173 175.113C60.6018 189.364 70.3572 202.711 84.6082 204.927C98.8591 207.143 112.206 197.387 114.422 183.136L132.213 106.93C132.495 105.719 133.662 104.931 134.889 105.122L139.565 105.849C140.86 106.052 141.746 107.264 141.543 108.559C141.535 108.612 141.525 108.663 141.514 108.716L123.788 184.609C120.429 203.981 102.004 216.963 82.632 213.605C63.7346 210.33 50.8296 192.673 53.4454 173.673L75.2925 71.9272C77.508 57.6764 90.8551 47.921 105.106 50.1363C119.357 52.3518 129.112 65.6988 126.897 79.9498L105.106 181.773C103.697 190.84 95.2046 197.046 86.1374 195.637C77.0701 194.228 70.8635 185.735 72.273 176.668L80.2478 141.543C80.5295 140.332 81.6966 139.544 82.9236 139.734L87.5998 140.461Z" fill="#FFCA00"/>
<path d="M135.608 99.001C135.608 108.39 127.997 116.001 118.608 116.001C109.219 116.001 101.608 108.39 101.608 99.001C101.608 89.6121 109.219 82.001 118.608 82.001C127.997 82.001 135.608 89.6121 135.608 99.001Z" fill="white"/>
<path fill-rule="evenodd" clip-rule="evenodd" d="M118.608 112.137C125.863 112.137 131.745 106.256 131.745 99.001C131.745 91.746 125.863 85.8646 118.608 85.8646C111.353 85.8646 105.472 91.746 105.472 99.001C105.472 106.256 111.353 112.137 118.608 112.137ZM118.608 116.001C127.997 116.001 135.608 108.39 135.608 99.001C135.608 89.6121 127.997 82.001 118.608 82.001C109.219 82.001 101.608 89.6121 101.608 99.001C101.608 108.39 109.219 116.001 118.608 116.001Z" fill="black"/>
<path d="M90.6082 98.001C90.6082 107.39 82.997 115.001 73.6082 115.001C64.2193 115.001 56.6082 107.39 56.6082 98.001C56.6082 88.6121 64.2193 81.001 73.6082 81.001C82.997 81.001 90.6082 88.6121 90.6082 98.001Z" fill="white"/>
<path fill-rule="evenodd" clip-rule="evenodd" d="M73.6082 111.137C80.8632 111.137 86.7445 105.256 86.7445 98.001C86.7445 90.746 80.8632 84.8646 73.6082 84.8646C66.3531 84.8646 60.4718 90.746 60.4718 98.001C60.4718 105.256 66.3531 111.137 73.6082 111.137ZM73.6082 115.001C82.997 115.001 90.6082 107.39 90.6082 98.001C90.6082 88.6121 82.997 81.001 73.6082 81.001C64.2193 81.001 56.6082 88.6121 56.6082 98.001C56.6082 107.39 64.2193 115.001 73.6082 115.001Z" fill="black"/>
<path fill-rule="evenodd" clip-rule="evenodd" d="M64.6691 70.674C59.1967 72.2034 54.8425 75.4893 52.5563 78.001L49.6082 75.4714C52.3056 72.5079 57.2761 68.7652 63.5807 67.0032C69.9659 65.2186 77.6847 65.484 85.6082 70.558L83.4419 73.7467C76.5718 69.3473 70.0611 69.167 64.6691 70.674Z" fill="black"/>
<path fill-rule="evenodd" clip-rule="evenodd" d="M99.8288 140.954C109.217 140.78 117.58 137.257 122.35 134.096L124.491 137.327C119.211 140.827 110.142 144.64 99.9005 144.829C89.5763 145.02 78.0979 141.519 68.2619 130.438L71.1612 127.864C80.1718 138.016 90.5228 141.126 99.8288 140.954Z" fill="black"/>
<path fill-rule="evenodd" clip-rule="evenodd" d="M115.251 64.0634C109.93 65.7203 105.697 69.28 103.474 72.001L100.608 69.2607C103.231 66.0501 108.063 61.9955 114.193 60.0867C120.4 58.1534 127.905 58.4409 135.608 63.9377L133.502 67.3922C126.823 62.6262 120.493 62.4309 115.251 64.0634Z" fill="black"/>
<path d="M77.6082 98.001C77.6082 100.762 75.3696 103.001 72.6082 103.001C69.8467 103.001 67.6082 100.762 67.6082 98.001C67.6082 95.2396 69.8467 93.001 72.6082 93.001C75.3696 93.001 77.6082 95.2396 77.6082 98.001Z" fill="black"/>
<path d="M122.608 98.001C122.608 100.762 120.37 103.001 117.608 103.001C114.847 103.001 112.608 100.762 112.608 98.001C112.608 95.2396 114.847 93.001 117.608 93.001C120.37 93.001 122.608 95.2396 122.608 98.001Z" fill="black"/>
<g filter="url(#filter0_d)">
<path fill-rule="evenodd" clip-rule="evenodd" d="M41.4593 53.1407C41.4646 53.0897 41.4648 53.0379 41.4598 52.9861C41.4448 52.8314 41.3834 52.6804 41.276 52.5555C41.093 52.3427 40.8156 52.2506 40.5519 52.2976L13.7978 56.3578C13.4745 56.4068 13.2168 56.6535 13.1535 56.9743C13.0902 57.2951 13.235 57.6211 13.5154 57.7893L22.8279 63.3727L23.0071 74.229C23.0125 74.5559 23.2224 74.8443 23.5319 74.9499C23.8414 75.0555 24.1838 74.9556 24.388 74.7002L41.284 53.5571C41.3136 53.5215 41.3398 53.4835 41.3624 53.4436C41.4162 53.349 41.4484 53.2457 41.4593 53.1407ZM23.9856 62.2588C24.2203 62.3952 24.3667 62.6445 24.3712 62.9164L24.5219 72.0487L38.8453 54.1249L16.1611 57.5675L23.9856 62.2588Z" fill="black"/>
</g>
<path fill-rule="evenodd" clip-rule="evenodd" d="M156.544 86.7108L152.317 80.8808L153.15 79.9491C153.997 79.0011 155.047 78.189 156.271 77.4995C157.475 76.7962 158.715 76.2626 159.992 75.9074C161.54 75.4766 162.984 75.2936 164.277 75.4505C165.488 75.5888 166.593 75.9186 167.532 76.4997C168.41 77.0425 169.133 77.7371 169.665 78.5899C170.151 79.3299 170.518 80.1 170.741 80.8995C170.959 81.6832 171.044 82.4743 170.977 83.2635C170.933 83.9446 170.809 84.6093 170.606 85.2545C170.411 85.8761 170.156 86.4815 169.846 87.0703C169.571 87.5915 169.3 88.0883 169.033 88.5606C168.85 88.8858 168.66 89.238 168.464 89.6179L168.45 89.6434L168.436 89.6684C168.271 89.9611 168.127 90.267 168.004 90.5867C167.912 90.8763 167.846 91.1771 167.809 91.4906L167.807 91.5074L167.804 91.5241C167.777 91.7204 167.789 91.896 167.836 92.0652L167.949 92.4685C167.982 92.5895 168.01 92.6587 168.025 92.6898L168.798 94.3486L168.167 94.5242C169.332 95.1241 170.063 96.1633 170.416 97.4313C170.79 98.7743 170.667 100.117 169.864 101.278C169.186 102.284 168.241 102.978 167.073 103.303C165.901 103.629 164.728 103.523 163.616 103.026L163.603 103.021L163.591 103.015C162.324 102.423 161.547 101.332 161.177 100.003C160.826 98.7429 160.899 97.4773 161.571 96.3599L161.374 96.4148L160.799 95.2807C160.661 95.008 160.536 94.7155 160.422 94.4071L160.399 94.3466L160.176 93.545C159.969 92.7989 159.863 92.059 159.888 91.3365C159.904 90.6733 159.989 90.031 160.149 89.4144L160.152 89.4027L160.155 89.391C160.324 88.7796 160.544 88.1921 160.816 87.6303C161.06 87.1269 161.32 86.6319 161.594 86.1454C161.946 85.5221 162.256 84.9264 162.525 84.3581C162.66 84.0489 162.674 83.7803 162.594 83.4926C162.571 83.4088 162.543 83.348 162.379 83.267L162.361 83.2578L162.342 83.248C162.314 83.2332 162.104 83.1379 161.507 83.3041C160.826 83.4937 160.225 83.7526 159.695 84.0743C159.145 84.4081 158.522 84.8852 157.826 85.5272L156.544 86.7108ZM163.935 85.0024C163.647 85.6139 163.317 86.249 162.945 86.9078C162.686 87.3661 162.441 87.8325 162.211 88.307C161.981 88.7814 161.794 89.2802 161.65 89.8031C161.522 90.2975 161.451 90.8242 161.438 91.3832C161.418 91.9198 161.496 92.5018 161.67 93.1293L161.876 93.8687C161.973 94.1314 162.075 94.3685 162.183 94.5801L166.619 93.3454C166.56 93.2172 166.505 93.0635 166.455 92.8842L166.343 92.4809C166.302 92.3369 166.274 92.1914 166.257 92.0444C166.23 91.8024 166.234 91.5564 166.269 91.3062C166.32 90.8816 166.411 90.4701 166.541 90.0716C166.694 89.6669 166.876 89.2784 167.086 88.906C167.29 88.5112 167.489 88.142 167.683 87.7983C167.942 87.34 168.206 86.8562 168.474 86.3468C168.743 85.8375 168.961 85.3182 169.127 84.7889C169.294 84.2597 169.395 83.7125 169.431 83.1472C169.483 82.5533 169.422 81.9426 169.247 81.3152C169.072 80.6878 168.776 80.0579 168.359 79.4257C167.964 78.7871 167.417 78.2514 166.717 77.8185C166.017 77.3855 165.143 77.1095 164.096 76.9905C163.071 76.8652 161.842 77.0021 160.408 77.4012C159.265 77.7192 158.143 78.2004 157.043 78.8446C155.937 79.4664 155.024 80.179 154.306 80.9824L156.775 84.3876C157.184 84.01 157.58 83.6757 157.963 83.3846C158.281 83.1428 158.59 82.9309 158.89 82.7488C159.551 82.3476 160.285 82.0347 161.092 81.8102C161.898 81.5857 162.556 81.6078 163.066 81.8765C163.597 82.139 163.938 82.5391 164.088 83.0769C164.269 83.7267 164.218 84.3686 163.935 85.0024ZM167.311 95.8327C166.534 95.4695 165.743 95.4002 164.936 95.6247C164.129 95.8491 163.476 96.3207 162.976 97.0393C162.498 97.7517 162.396 98.6009 162.67 99.5868C162.945 100.573 163.471 101.247 164.248 101.611C165.047 101.967 165.85 102.034 166.657 101.809C167.464 101.585 168.106 101.116 168.584 100.404C169.084 99.6853 169.197 98.833 168.922 97.8471C168.648 96.8611 168.111 96.1897 167.311 95.8327Z" fill="black"/>
<path fill-rule="evenodd" clip-rule="evenodd" d="M201.655 75.5431L201.56 69.9319L202.776 69.6456C203.617 69.4476 204.506 69.4067 205.428 69.4963C206.337 69.5708 207.208 69.7506 208.035 70.0421C209.02 70.3893 209.898 70.8429 210.578 71.4522C211.192 71.9958 211.698 72.6248 212.012 73.3536L210.588 73.9669C210.385 73.4965 210.038 73.0443 209.547 72.6102C209.069 72.181 208.393 71.8124 207.519 71.5045C206.823 71.2592 206.08 71.1046 205.289 71.0408C204.503 70.9632 203.784 71.0013 203.131 71.1549L203.176 73.7716C203.755 73.6929 204.272 73.6637 204.725 73.684C204.764 73.6857 204.801 73.6877 204.839 73.6902C205.319 73.7213 205.805 73.8234 206.296 73.9966C206.787 74.1697 207.115 74.4156 207.279 74.7343C207.457 75.0577 207.488 75.3832 207.372 75.7108C207.233 76.1067 206.978 76.4158 206.608 76.6384C206.243 76.8473 205.848 77.0534 205.423 77.2567C205.128 77.3981 204.837 77.5488 204.55 77.7087C204.264 77.8685 203.991 78.0561 203.731 78.2714C203.489 78.4778 203.265 78.7212 203.059 79.0014C202.858 79.2681 202.69 79.5925 202.555 79.9746L202.396 80.4251C202.367 80.5378 202.342 80.6456 202.323 80.7483C202.314 80.7991 202.306 80.8488 202.299 80.8972L205.002 81.8496C205.012 81.7893 205.028 81.7236 205.05 81.6524C205.06 81.6212 205.07 81.589 205.082 81.5558L205.169 81.3101C205.2 81.2224 205.237 81.1381 205.281 81.0571C205.353 80.9239 205.443 80.7998 205.55 80.6849C205.727 80.4866 205.92 80.3091 206.129 80.1524C206.351 80.0006 206.582 79.8672 206.822 79.7523C207.067 79.6237 207.3 79.5064 207.522 79.4004C207.817 79.2589 208.124 79.1063 208.443 78.9423C208.762 78.7784 209.058 78.5912 209.331 78.3808C209.605 78.1703 209.852 77.9274 210.072 77.6519C210.31 77.3676 210.496 77.0344 210.631 76.6522C210.766 76.27 210.839 75.8433 210.852 75.372C210.878 74.9056 210.79 74.4372 210.588 73.9669L212.012 73.3536C212.297 74.0158 212.438 74.7151 212.401 75.4354C212.384 76.0347 212.288 76.6171 212.094 77.1676C211.905 77.7029 211.634 78.1974 211.272 78.6332C210.979 78.9987 210.647 79.3253 210.277 79.6099C209.926 79.8794 209.551 80.1162 209.152 80.3212C208.822 80.4913 208.501 80.6506 208.192 80.7989C207.989 80.8958 207.773 81.0044 207.543 81.1251L207.518 81.1385L207.492 81.1509C207.335 81.2262 207.182 81.3133 207.034 81.4127C206.918 81.502 206.809 81.6033 206.706 81.7183L206.695 81.731L206.683 81.7433C206.653 81.7761 206.64 81.8008 206.631 81.8255L206.545 82.0705C206.536 82.0951 206.531 82.1121 206.529 82.121C206.528 82.1224 206.528 82.1236 206.528 82.1245L206.232 83.8114C206.303 84.3712 206.225 84.9384 206.033 85.4817C205.698 86.432 205.047 87.2225 204.035 87.5998C203.205 87.9184 202.333 87.9393 201.487 87.6413C200.639 87.3424 199.973 86.7778 199.516 86.0165L199.509 86.005L199.502 85.9934C198.965 85.0628 198.97 84.0456 199.3 83.1087C199.56 82.3708 200.009 81.7206 200.677 81.288L200.764 80.6786C200.794 80.4647 200.84 80.2488 200.896 80.0329L200.912 79.9705L201.092 79.4592C201.268 78.9607 201.503 78.4907 201.816 78.0751C202.084 77.7111 202.386 77.3811 202.723 77.0926L202.732 77.0847L202.742 77.077C203.072 76.8032 203.424 76.5618 203.795 76.3546C204.109 76.179 204.429 76.0135 204.754 75.8581C205.067 75.7082 205.359 75.5584 205.63 75.4089C205.317 75.3108 205.021 75.2558 204.739 75.2375C204.388 75.2149 203.941 75.2325 203.385 75.3081L201.655 75.5431ZM201.911 82.4045C201.883 82.4137 201.855 82.4236 201.826 82.4339C201.329 82.6268 200.974 83.0236 200.762 83.6241C200.551 84.2247 200.578 84.7562 200.845 85.2184C201.125 85.6855 201.511 86.0057 202.003 86.1788C202.494 86.352 202.989 86.3422 203.486 86.1493C203.998 85.9612 204.359 85.5668 204.571 84.9663C204.782 84.3657 204.748 83.8318 204.468 83.3647C204.453 83.3393 204.438 83.3142 204.422 83.2897C204.159 82.8679 203.795 82.5752 203.33 82.4116C202.866 82.2479 202.393 82.2456 201.911 82.4045Z" fill="#C4C4C4"/>
<path fill-rule="evenodd" clip-rule="evenodd" d="M56.2555 50.6519C55.9646 50.5577 55.658 50.5156 55.3359 50.5257C55.0138 50.5359 54.7083 50.5972 54.4196 50.7097C54.1082 50.8311 53.8162 51.012 53.5437 51.2524C53.037 51.7151 52.7965 52.3557 52.8223 53.174C52.848 53.9923 53.1283 54.6165 53.6631 55.0464C54.2165 55.4758 54.828 55.6799 55.4975 55.6589C56.1671 55.6378 56.7552 55.3959 57.2619 54.9331C57.7872 54.4698 58.0369 53.8289 58.0112 53.0106C57.9854 52.1923 57.6958 51.5684 57.1424 51.1391C56.8649 50.916 56.5693 50.7536 56.2555 50.6519ZM58.3564 50.1379L58.4519 49.2448C58.5985 47.8738 58.7079 46.5216 58.78 45.1882C58.8534 43.8326 58.8649 42.382 58.8163 40.8379L58.6103 34.2944L51.0749 34.5316L51.2809 41.0751C51.3295 42.6193 51.4323 44.0663 51.5907 45.4145L51.592 45.4255L51.5935 45.4363C51.7673 46.7544 51.97 48.0895 52.2013 49.4416L52.3412 50.259C51.5508 51.0682 51.2376 52.1184 51.2724 53.2228C51.3094 54.3975 51.7353 55.4862 52.6915 56.2549L52.702 56.2633L52.7126 56.2715C53.537 56.9112 54.4986 57.2417 55.5463 57.2087C56.5912 57.1758 57.5271 56.787 58.298 56.0868C59.2225 55.2655 59.5985 54.1507 59.561 52.9618C59.527 51.881 59.1558 50.8826 58.3564 50.1379ZM56.91 49.0799C57.0539 47.735 57.1611 46.4098 57.2317 45.1045C57.3023 43.7991 57.3139 42.3931 57.2664 40.8867L57.1092 35.8931L52.6735 36.0327L52.8308 41.0263C52.8782 42.5328 52.9782 43.9352 53.1308 45.2336C53.3019 46.5313 53.5016 47.8468 53.7297 49.1801L56.91 49.0799Z" fill="#FFCA00"/>
<path fill-rule="evenodd" clip-rule="evenodd" d="M118.273 11.1247L117.716 3.0083L118.916 2.65977C120.367 2.23837 121.944 2.07953 123.629 2.15728C125.305 2.2072 126.908 2.45396 128.432 2.90427C130.29 3.45348 131.859 4.18269 133.051 5.14613C134.187 6.05083 135.081 7.07122 135.651 8.22598L134.26 8.91166C133.815 8.00946 133.089 7.15743 132.081 6.35555C131.1 5.56173 129.737 4.90698 127.992 4.3913C126.602 3.98037 125.128 3.75221 123.57 3.70684C122.02 3.6342 120.613 3.78154 119.349 4.14885L119.7 9.27743C120.24 9.17557 120.753 9.09738 121.239 9.04286C121.854 8.97374 122.426 8.94267 122.954 8.94965C123.899 8.96213 124.862 9.1134 125.844 9.40347C126.825 9.69354 127.493 10.1428 127.847 10.7513C128.228 11.3679 128.321 12.0033 128.128 12.6576C127.894 13.4482 127.426 14.0805 126.723 14.5544C126.027 15.0011 125.274 15.4453 124.461 15.887C123.896 16.1943 123.341 16.5192 122.795 16.8618C122.249 17.2044 121.732 17.6 121.243 18.0485C120.79 18.4779 120.376 18.9779 120 19.5485C119.632 20.0919 119.335 20.7452 119.109 21.5086L118.843 22.4082C118.774 22.7434 118.726 23.0554 118.7 23.3441L124.098 24.9395C124.119 24.7679 124.162 24.573 124.226 24.3549L124.371 23.8642C124.413 23.7216 124.464 23.583 124.524 23.4484C124.657 23.1453 124.835 22.8623 125.056 22.5993C125.384 22.1923 125.745 21.8246 126.138 21.4962C126.559 21.1759 126.999 20.8909 127.458 20.6413C127.925 20.3643 128.371 20.1106 128.795 19.8802C129.36 19.5729 129.947 19.2424 130.555 18.8887C131.164 18.5349 131.726 18.1378 132.241 17.6973C132.757 17.2568 133.216 16.7553 133.62 16.1927C134.058 15.6109 134.391 14.9384 134.616 14.175C134.842 13.4117 134.943 12.5671 134.92 11.6414C134.925 10.7238 134.705 9.81386 134.26 8.91166L135.651 8.22598C136.188 9.31539 136.473 10.4533 136.471 11.6254C136.495 12.6788 136.379 13.6798 136.103 14.6145C135.832 15.5334 135.424 16.3715 134.869 17.1112C134.397 17.7673 133.856 18.3567 133.248 18.8762C132.659 19.3796 132.021 19.8303 131.334 20.2292C130.714 20.5897 130.115 20.9275 129.535 21.2424C129.13 21.4627 128.702 21.7068 128.249 21.9752L128.224 21.9898L128.199 22.0035C127.82 22.2095 127.456 22.4443 127.106 22.7087C126.802 22.9648 126.522 23.252 126.264 23.5719L126.253 23.5851L126.243 23.598C126.057 23.8187 125.933 24.0511 125.858 24.3037L125.713 24.7944C125.666 24.9546 125.645 25.0633 125.637 25.1286L125.414 26.9454L124.09 26.554C124.234 26.7297 124.37 26.9156 124.498 27.1115C125.391 28.4469 125.514 29.9815 125.055 31.5364C124.595 33.0912 123.657 34.3121 122.182 34.9475C120.9 35.5188 119.555 35.6186 118.213 35.2221C116.869 34.8248 115.787 34.006 114.998 32.8334L114.99 32.8223L114.983 32.811C114.119 31.4773 114.019 29.9508 114.474 28.4093C114.93 26.8679 115.844 25.6412 117.294 24.9914L117.306 24.986L117.319 24.9807C117.533 24.8893 117.748 24.8102 117.964 24.7437L117.041 24.4709L117.156 23.2048C117.188 22.8478 117.245 22.4768 117.325 22.0937L117.338 22.0306L117.622 21.0691C117.883 20.1876 118.239 19.3853 118.71 18.6871C119.144 18.0299 119.632 17.4393 120.177 16.9231L120.185 16.9148L120.194 16.9066C120.75 16.396 121.342 15.9426 121.97 15.5484C122.544 15.1887 123.127 14.8474 123.72 14.5247C124.497 14.1024 125.213 13.6806 125.869 13.26C126.275 12.9828 126.514 12.6479 126.641 12.2181C126.701 12.0157 126.693 11.8341 126.528 11.5665L126.517 11.5487L126.506 11.5306C126.426 11.3925 126.177 11.1189 125.404 10.8905C124.548 10.6373 123.726 10.5106 122.934 10.5001C122.119 10.4894 121.141 10.5837 119.988 10.8012L118.273 11.1247ZM123.203 27.9656C122.634 27.0857 121.858 26.5007 120.876 26.2107C119.895 25.9206 118.912 25.9859 117.928 26.4065C116.972 26.8352 116.316 27.6493 115.961 28.8488C115.607 30.0484 115.715 31.0881 116.284 31.968C116.882 32.856 117.671 33.445 118.652 33.735C119.634 34.0251 120.603 33.9558 121.56 33.5271C122.544 33.1065 123.213 32.2964 123.568 31.0969C123.922 29.8973 123.801 28.8536 123.203 27.9656Z" fill="black"/>
<path d="M130.087 154.347C141.834 162.669 169.526 172.037 186.326 142.938" stroke="black" stroke-width="2"/>
<rect x="179.445" y="136.857" width="7" height="16" transform="rotate(-60 179.445 136.857)" fill="white"/>
<path d="M177.147 138.994C176.362 138.541 176.091 137.539 176.542 136.75L181.17 128.695C181.386 128.314 181.747 128.038 182.168 127.924C182.588 127.809 183.039 127.868 183.419 128.085L199.495 137.34L199.497 137.342C200.283 137.795 200.554 138.797 200.102 139.585L195.466 147.642C195.012 148.429 194.007 148.698 193.218 148.244L177.147 138.994ZM183.21 131.761L180.215 136.961L193.439 144.574L196.43 139.373L183.21 131.761Z" fill="black"/>
<path d="M184.365 118.336L184.195 128.63L198.484 136.88L208.484 119.559L198.092 113.559L201.842 107.064L199.811 103.582L196.646 104.064L192.896 110.559L188.865 110.541L184.365 118.336Z" fill="white"/>
<path d="M199.146 106.222C199.859 106.634 200.102 107.542 199.691 108.254L194.859 116.624C195.305 116.699 195.753 116.842 196.194 117.036L196.679 116.195C197.09 115.484 197.998 115.24 198.711 115.652C199.423 116.063 199.667 116.971 199.256 117.682L198.799 118.473L199.976 119.153L200.227 118.718C200.637 118.008 201.55 117.764 202.262 118.175C202.972 118.585 203.214 119.496 202.804 120.206L202.524 120.69C202.912 120.975 203.259 121.293 203.549 121.641C203.959 120.93 204.868 120.685 205.581 121.096C206.293 121.508 206.536 122.417 206.125 123.128L204.215 126.436L202.871 128.764L199.327 134.902C198.913 135.62 198.273 136.136 197.518 136.451L185.063 129.272C185.011 128.856 185.016 128.442 185.092 128.041L185.136 119.98C185.138 119.714 185.208 119.45 185.343 119.217L188.689 113.422C189.1 112.71 189.981 112.451 190.656 112.841C191.332 113.231 191.545 114.122 191.134 114.834L189.772 117.194L189.95 119.165L197.11 106.764C197.523 106.055 198.437 105.813 199.146 106.222ZM200.792 103.372C198.509 102.054 195.581 102.84 194.264 105.121L191.636 109.673C189.514 108.863 187.032 109.716 185.842 111.777L182.497 117.571C182.073 118.305 181.849 119.137 181.85 119.979L181.806 127.775C181.722 128.391 181.722 129.034 181.804 129.687C181.932 130.707 182.532 131.609 183.423 132.123L183.426 132.125L195.88 139.304C196.768 139.816 197.845 139.885 198.791 139.489C200.251 138.88 201.425 137.865 202.184 136.549L205.728 130.412L207.072 128.083L208.982 124.776C210.3 122.493 209.514 119.565 207.233 118.248C206.832 118.017 206.409 117.848 205.98 117.745C205.599 116.76 204.897 115.892 203.915 115.326C203.372 115.012 202.795 114.818 202.212 114.734C201.869 114.074 201.372 113.491 200.734 113.039L202.546 109.901C203.858 107.618 203.073 104.689 200.792 103.372Z" fill="black"/>
<defs>
<filter id="filter0_d" x="5.35254" y="41.6904" width="40.2851" height="40.285" filterUnits="userSpaceOnUse" color-interpolation-filters="sRGB">
<feFlood flood-opacity="0" result="BackgroundImageFix"/>
<feColorMatrix in="SourceAlpha" type="matrix" values="0 0 0 0 0 0 0 0 0 0 0 0 0 0 0 0 0 0 127 0"/>
<feOffset/>
<feGaussianBlur stdDeviation="2"/>
<feColorMatrix type="matrix" values="0 0 0 0 0 0 0 0 0 0 0 0 0 0 0 0 0 0 0.25 0"/>
<feBlend mode="normal" in2="BackgroundImageFix" result="effect1_dropShadow"/>
<feBlend mode="normal" in="SourceGraphic" in2="effect1_dropShadow" result="shape"/>
</filter>
<linearGradient id="paint0_linear" x1="112.269" y1="173.106" x2="62.6607" y2="218.512" gradientUnits="userSpaceOnUse">
<stop stop-color="#C4C4C4"/>
<stop offset="1" stop-color="#C4C4C4" stop-opacity="0"/>
</linearGradient>
</defs>
</svg>
